<svg width="65" height="74" viewBox="0 0 65 74" fill="none" xmlns="http://www.w3.org/2000/svg">
<rect width="65" height="74" rx="10" fill="white"/>
<path d="M24.2507 20.7917C24.2507 19.5258 25.2765 18.5 26.5424 18.5C27.8083 18.5 28.834 19.5258 28.834 20.7917C28.834 22.0576 27.8083 23.0833 26.5424 23.0833C25.2765 23.0833 24.2507 22.0576 24.2507 20.7917ZM38.4589 23.0833C39.7248 23.0833 40.7505 22.0576 40.7505 20.7917C40.7505 19.5258 39.7248 18.5 38.4589 18.5C37.193 18.5 36.1672 19.5258 36.1672 20.7917C36.1672 22.0576 37.193 23.0833 38.4589 23.0833ZM23.7172 35.0348C23.2314 34.9001 22.7236 35.1778 22.5842 35.6655L21.5356 39.3322C21.3962 39.818 21.6786 40.3258 22.1653 40.4652C22.2497 40.4881 22.3349 40.5 22.4174 40.5C22.8161 40.5 23.1828 40.2378 23.2983 39.8345L24.346 36.1678C24.4854 35.682 24.204 35.1742 23.7172 35.0348ZM43.4647 39.3322L42.417 35.6655C42.2786 35.1788 41.7708 34.9001 41.284 35.0348C40.7973 35.1742 40.5159 35.6811 40.6543 36.1678L41.702 39.8345C41.8166 40.2369 42.1842 40.5 42.5829 40.5C42.6663 40.5 42.7516 40.4881 42.835 40.4652C43.3217 40.3258 43.6032 39.8189 43.4647 39.3322ZM41.7928 33.1795L38.9163 35.0541V39.5833C38.9163 40.0903 38.5056 40.5 37.9996 40.5C37.4936 40.5 37.083 40.0903 37.083 39.5833V34.5573C37.083 34.2474 37.2397 33.9587 37.4991 33.7891L38.8714 32.8953L37.3745 27.2899L36.1672 29.3249V31.7917C36.1672 33.0557 35.1388 34.0833 33.8756 34.0833H31.1256C29.8625 34.0833 28.834 33.0557 28.834 31.7917V29.3249L27.6323 27.2982L26.1757 32.9237L27.5012 33.7882C27.7606 33.9578 27.9173 34.2465 27.9173 34.5563V39.5824C27.9173 40.0893 27.5067 40.4991 27.0007 40.4991C26.4947 40.4991 26.084 40.0893 26.084 39.5824V35.0532L23.1975 33.1712C21.9252 32.3682 21.2697 30.8246 21.5768 29.3387L22.2616 26.8077C22.5916 25.2036 24.0701 24 25.7632 24C27.0245 24 28.207 24.6738 28.8505 25.7591L29.7277 27.2386C30.1155 26.937 30.5967 26.75 31.1256 26.75H33.8756C34.4045 26.75 34.8858 26.937 35.2735 27.2386L36.1517 25.7591C36.7942 24.6738 37.9767 24 39.238 24C40.932 24 42.4097 25.2036 42.7525 26.8628L43.4116 29.2846C43.7315 30.8255 43.0761 32.3682 41.7928 33.1795ZM24.555 31.8678L26.106 25.8783C25.9933 25.8553 25.8805 25.8333 25.7641 25.8333C24.9355 25.8333 24.2122 26.4228 24.0454 27.2331L23.3606 29.764C23.2195 30.4524 23.5476 31.2242 24.1884 31.6285L24.555 31.8678ZM34.3339 29.0417C34.3339 28.7896 34.1286 28.5833 33.8756 28.5833H31.1256C30.8726 28.5833 30.6673 28.7896 30.6673 29.0417V31.7917C30.6673 32.0438 30.8726 32.25 31.1256 32.25H33.8756C34.1286 32.25 34.3339 32.0438 34.3339 31.7917V29.0417ZM41.6287 29.7099L40.9696 27.2881C40.789 26.4227 40.0658 25.8333 39.2371 25.8333C39.1207 25.8333 39.007 25.8562 38.8952 25.8783L40.4874 31.8412L40.8028 31.6358C41.4545 31.2242 41.7818 30.4524 41.6287 29.709V29.7099Z" fill="#2D7FC3"/>
<path d="M8.71006 58.708C8.71006 58.164 8.8354 57.676 9.08606 57.244C9.34206 56.812 9.68606 56.476 10.1181 56.236C10.5554 55.9907 11.0327 55.868 11.5501 55.868C12.1421 55.868 12.6674 56.0147 13.1261 56.308C13.5901 56.596 13.9261 57.0067 14.1341 57.54H13.0381C12.8941 57.2467 12.6941 57.028 12.4381 56.884C12.1821 56.74 11.8861 56.668 11.5501 56.668C11.1821 56.668 10.8541 56.7507 10.5661 56.916C10.2781 57.0813 10.0514 57.3187 9.88606 57.628C9.72606 57.9373 9.64606 58.2973 9.64606 58.708C9.64606 59.1187 9.72606 59.4787 9.88606 59.788C10.0514 60.0973 10.2781 60.3373 10.5661 60.508C10.8541 60.6733 11.1821 60.756 11.5501 60.756C11.8861 60.756 12.1821 60.684 12.4381 60.54C12.6941 60.396 12.8941 60.1773 13.0381 59.884H14.1341C13.9261 60.4173 13.5901 60.828 13.1261 61.116C12.6674 61.404 12.1421 61.548 11.5501 61.548C11.0274 61.548 10.5501 61.428 10.1181 61.188C9.68606 60.9427 9.34206 60.604 9.08606 60.172C8.8354 59.74 8.71006 59.252 8.71006 58.708ZM17.1136 61.572C16.6976 61.572 16.3216 61.4787 15.9856 61.292C15.6496 61.1 15.3856 60.8333 15.1936 60.492C15.0016 60.1453 14.9056 59.7453 14.9056 59.292C14.9056 58.844 15.0042 58.4467 15.2016 58.1C15.3989 57.7533 15.6682 57.4867 16.0096 57.3C16.3509 57.1133 16.7322 57.02 17.1536 57.02C17.5749 57.02 17.9562 57.1133 18.2976 57.3C18.6389 57.4867 18.9082 57.7533 19.1056 58.1C19.3029 58.4467 19.4016 58.844 19.4016 59.292C19.4016 59.74 19.3002 60.1373 19.0976 60.484C18.8949 60.8307 18.6176 61.1 18.2656 61.292C17.9189 61.4787 17.5349 61.572 17.1136 61.572ZM17.1136 60.78C17.3482 60.78 17.5669 60.724 17.7696 60.612C17.9776 60.5 18.1456 60.332 18.2736 60.108C18.4016 59.884 18.4656 59.612 18.4656 59.292C18.4656 58.972 18.4042 58.7027 18.2816 58.484C18.1589 58.26 17.9962 58.092 17.7936 57.98C17.5909 57.868 17.3722 57.812 17.1376 57.812C16.9029 57.812 16.6842 57.868 16.4816 57.98C16.2842 58.092 16.1269 58.26 16.0096 58.484C15.8922 58.7027 15.8336 58.972 15.8336 59.292C15.8336 59.7667 15.9536 60.1347 16.1936 60.396C16.4389 60.652 16.7456 60.78 17.1136 60.78ZM22.5271 57.02C22.8738 57.02 23.1831 57.092 23.4551 57.236C23.7325 57.38 23.9485 57.5933 24.1031 57.876C24.2578 58.1587 24.3351 58.5 24.3351 58.9V61.5H23.4311V59.036C23.4311 58.6413 23.3325 58.34 23.1351 58.132C22.9378 57.9187 22.6685 57.812 22.3271 57.812C21.9858 57.812 21.7138 57.9187 21.5111 58.132C21.3138 58.34 21.2151 58.6413 21.2151 59.036V61.5H20.3031V57.092H21.2151V57.596C21.3645 57.4147 21.5538 57.2733 21.7831 57.172C22.0178 57.0707 22.2658 57.02 22.5271 57.02ZM26.5624 57.836V60.276C26.5624 60.4413 26.5998 60.5613 26.6744 60.636C26.7544 60.7053 26.8878 60.74 27.0744 60.74H27.6344V61.5H26.9144C26.5038 61.5 26.1891 61.404 25.9704 61.212C25.7518 61.02 25.6424 60.708 25.6424 60.276V57.836H25.1224V57.092H25.6424V55.996H26.5624V57.092H27.6344V57.836H26.5624ZM29.387 57.732C29.5203 57.508 29.6963 57.3347 29.915 57.212C30.139 57.084 30.403 57.02 30.707 57.02V57.964H30.475C30.1177 57.964 29.8457 58.0547 29.659 58.236C29.4777 58.4173 29.387 58.732 29.387 59.18V61.5H28.475V57.092H29.387V57.732ZM31.2413 59.276C31.2413 58.8333 31.332 58.4413 31.5133 58.1C31.7 57.7587 31.9506 57.4947 32.2653 57.308C32.5853 57.116 32.9373 57.02 33.3213 57.02C33.668 57.02 33.9693 57.0893 34.2253 57.228C34.4866 57.3613 34.6946 57.5293 34.8493 57.732V57.092H35.7693V61.5H34.8493V60.844C34.6946 61.052 34.484 61.2253 34.2173 61.364C33.9506 61.5027 33.6466 61.572 33.3053 61.572C32.9266 61.572 32.58 61.476 32.2653 61.284C31.9506 61.0867 31.7 60.8147 31.5133 60.468C31.332 60.116 31.2413 59.7187 31.2413 59.276ZM34.8493 59.292C34.8493 58.988 34.7853 58.724 34.6573 58.5C34.5346 58.276 34.372 58.1053 34.1693 57.988C33.9666 57.8707 33.748 57.812 33.5133 57.812C33.2786 57.812 33.06 57.8707 32.8573 57.988C32.6546 58.1 32.4893 58.268 32.3613 58.492C32.2386 58.7107 32.1773 58.972 32.1773 59.276C32.1773 59.58 32.2386 59.8467 32.3613 60.076C32.4893 60.3053 32.6546 60.4813 32.8573 60.604C33.0653 60.7213 33.284 60.78 33.5133 60.78C33.748 60.78 33.9666 60.7213 34.1693 60.604C34.372 60.4867 34.5346 60.316 34.6573 60.092C34.7853 59.8627 34.8493 59.596 34.8493 59.292ZM36.6632 59.292C36.6632 58.8387 36.7539 58.4413 36.9352 58.1C37.1219 57.7533 37.3779 57.4867 37.7032 57.3C38.0285 57.1133 38.4019 57.02 38.8232 57.02C39.3565 57.02 39.7965 57.148 40.1432 57.404C40.4952 57.6547 40.7325 58.0147 40.8552 58.484H39.8712C39.7912 58.2653 39.6632 58.0947 39.4872 57.972C39.3112 57.8493 39.0899 57.788 38.8232 57.788C38.4499 57.788 38.1512 57.9213 37.9272 58.188C37.7085 58.4493 37.5992 58.8173 37.5992 59.292C37.5992 59.7667 37.7085 60.1373 37.9272 60.404C38.1512 60.6707 38.4499 60.804 38.8232 60.804C39.3512 60.804 39.7005 60.572 39.8712 60.108H40.8552C40.7272 60.556 40.4872 60.9133 40.1352 61.18C39.7832 61.4413 39.3459 61.572 38.8232 61.572C38.4019 61.572 38.0285 61.4787 37.7032 61.292C37.3779 61.1 37.1219 60.8333 36.9352 60.492C36.7539 60.1453 36.6632 59.7453 36.6632 59.292ZM42.8281 57.836V60.276C42.8281 60.4413 42.8654 60.5613 42.9401 60.636C43.0201 60.7053 43.1534 60.74 43.3401 60.74H43.9001V61.5H43.1801C42.7694 61.5 42.4547 61.404 42.2361 61.212C42.0174 61.02 41.9081 60.708 41.9081 60.276V57.836H41.3881V57.092H41.9081V55.996H42.8281V57.092H43.9001V57.836H42.8281ZM46.6526 61.572C46.2366 61.572 45.8606 61.4787 45.5246 61.292C45.1886 61.1 44.9246 60.8333 44.7326 60.492C44.5406 60.1453 44.4446 59.7453 44.4446 59.292C44.4446 58.844 44.5433 58.4467 44.7406 58.1C44.938 57.7533 45.2073 57.4867 45.5486 57.3C45.89 57.1133 46.2713 57.02 46.6926 57.02C47.114 57.02 47.4953 57.1133 47.8366 57.3C48.178 57.4867 48.4473 57.7533 48.6446 58.1C48.842 58.4467 48.9406 58.844 48.9406 59.292C48.9406 59.74 48.8393 60.1373 48.6366 60.484C48.434 60.8307 48.1566 61.1 47.8046 61.292C47.458 61.4787 47.074 61.572 46.6526 61.572ZM46.6526 60.78C46.8873 60.78 47.106 60.724 47.3086 60.612C47.5166 60.5 47.6846 60.332 47.8126 60.108C47.9406 59.884 48.0046 59.612 48.0046 59.292C48.0046 58.972 47.9433 58.7027 47.8206 58.484C47.698 58.26 47.5353 58.092 47.3326 57.98C47.13 57.868 46.9113 57.812 46.6766 57.812C46.442 57.812 46.2233 57.868 46.0206 57.98C45.8233 58.092 45.666 58.26 45.5486 58.484C45.4313 58.7027 45.3726 58.972 45.3726 59.292C45.3726 59.7667 45.4926 60.1347 45.7326 60.396C45.978 60.652 46.2846 60.78 46.6526 60.78ZM50.7542 57.732C50.8875 57.508 51.0635 57.3347 51.2822 57.212C51.5062 57.084 51.7702 57.02 52.0742 57.02V57.964H51.8422C51.4849 57.964 51.2129 58.0547 51.0262 58.236C50.8449 58.4173 50.7542 58.732 50.7542 59.18V61.5H49.8422V57.092H50.7542V57.732ZM54.5125 61.572C54.1658 61.572 53.8538 61.5107 53.5765 61.388C53.3045 61.26 53.0885 61.0893 52.9285 60.876C52.7685 60.6573 52.6832 60.4147 52.6725 60.148H53.6165C53.6325 60.3347 53.7205 60.492 53.8805 60.62C54.0458 60.7427 54.2512 60.804 54.4965 60.804C54.7525 60.804 54.9498 60.756 55.0885 60.66C55.2325 60.5587 55.3045 60.4307 55.3045 60.276C55.3045 60.1107 55.2245 59.988 55.0645 59.908C54.9098 59.828 54.6618 59.74 54.3205 59.644C53.9898 59.5533 53.7205 59.4653 53.5125 59.38C53.3045 59.2947 53.1232 59.164 52.9685 58.988C52.8192 58.812 52.7445 58.58 52.7445 58.292C52.7445 58.0573 52.8138 57.844 52.9525 57.652C53.0912 57.4547 53.2885 57.3 53.5445 57.188C53.8058 57.076 54.1045 57.02 54.4405 57.02C54.9418 57.02 55.3445 57.148 55.6485 57.404C55.9578 57.6547 56.1232 57.9987 56.1445 58.436H55.2325C55.2165 58.2387 55.1365 58.0813 54.9925 57.964C54.8485 57.8467 54.6538 57.788 54.4085 57.788C54.1685 57.788 53.9845 57.8333 53.8565 57.924C53.7285 58.0147 53.6645 58.1347 53.6645 58.284C53.6645 58.4013 53.7072 58.5 53.7925 58.58C53.8778 58.66 53.9818 58.724 54.1045 58.772C54.2272 58.8147 54.4085 58.8707 54.6485 58.94C54.9685 59.0253 55.2298 59.1133 55.4325 59.204C55.6405 59.2893 55.8192 59.4173 55.9685 59.588C56.1178 59.7587 56.1952 59.9853 56.2005 60.268C56.2005 60.5187 56.1312 60.7427 55.9925 60.94C55.8538 61.1373 55.6565 61.292 55.4005 61.404C55.1498 61.516 54.8538 61.572 54.5125 61.572Z" fill="#2D7FC3"/>
</svg>
