<svg width="64" height="64" viewBox="0 0 64 64" fill="none" xmlns="http://www.w3.org/2000/svg">
<rect width="64" height="64" rx="32" fill="#FFC130"/>
<path d="M32 17C23.7287 17 17 23.7287 17 32C17 40.2712 23.7287 47 32 47C40.2712 47 47 40.2712 47 32C47 23.7287 40.2712 17 32 17ZM32 44.5C25.1075 44.5 19.5 38.8925 19.5 32C19.5 25.1075 25.1075 19.5 32 19.5C38.8925 19.5 44.5 25.1075 44.5 32C44.5 38.8925 38.8925 44.5 32 44.5ZM37 34.5C37 36.5675 35.3175 38.25 33.25 38.25V39.5C33.25 40.1912 32.6912 40.75 32 40.75C31.3088 40.75 30.75 40.1912 30.75 39.5V38.25H30.415C29.0813 38.25 27.8362 37.5325 27.1675 36.3763C26.8212 35.7775 27.0262 35.0138 27.6225 34.6688C28.2213 34.32 28.9862 34.5275 29.33 35.1237C29.5538 35.5112 29.9688 35.75 30.4137 35.75H33.2487C33.9387 35.75 34.4987 35.19 34.4987 34.5C34.4987 34.0275 34.16 33.6275 33.6937 33.55L29.8925 32.9163C28.215 32.6375 26.9987 31.2 26.9987 29.5C26.9987 27.4325 28.6812 25.75 30.7487 25.75V24.5C30.7487 23.81 31.3075 23.25 31.9987 23.25C32.69 23.25 33.2487 23.81 33.2487 24.5V25.75H33.5837C34.9175 25.75 36.1625 26.4688 36.8312 27.625C37.1775 28.2225 36.9725 28.9862 36.3763 29.3325C35.7763 29.6788 35.0125 29.4738 34.6688 28.8763C34.445 28.49 34.03 28.2513 33.585 28.2513H30.75C30.06 28.2513 29.5 28.8125 29.5 29.5013C29.5 29.9738 29.8387 30.3737 30.305 30.4513L34.1063 31.085C35.7838 31.3637 37 32.8013 37 34.5013V34.5Z" fill="black"/>
</svg>
