<svg width="50" height="54" viewBox="0 0 50 54" fill="none" xmlns="http://www.w3.org/2000/svg">
<path d="M34.5154 24.3932C37.1548 28.4538 38.6917 32.8722 39.6251 37.3481C40.2529 40.7401 40.5308 44.1841 40.5726 47.5665C42.1577 44.3937 44.1364 41.3236 46.5348 38.5783C47.3838 37.5806 49.5953 40.3817 48.8775 41.1986C45.7263 44.895 43.2134 49.0451 41.4701 53.4678C40.9795 54.7026 39.1698 52.9389 38.9606 51.8083C38.8207 51.7 38.6808 51.5918 38.6196 51.504C35.9008 48.7139 33.0682 46.0375 30.0256 43.5215C29.4049 43.0008 28.7931 42.1237 28.9859 41.385C29.1788 40.6463 30.0096 41.0067 30.4905 41.4192C33.1746 43.6981 35.6662 46.0702 38.1402 48.5096C38.0571 41.0993 37.7117 33.4053 33.7358 26.4134C31.7172 22.8735 28.885 19.5516 25.7902 16.5916C22.8177 13.8069 19.4602 11.2087 15.8226 9.03949C11.6866 6.52492 7.15661 4.5531 2.5039 3.05137C1.65558 2.75815 1.04378 1.88107 0.886727 1.19447C0.773322 0.662721 0.808767 -0.117093 1.65709 0.176132C10.5078 2.98913 18.7888 7.66193 25.372 13.6848C28.7291 16.9285 31.9985 20.508 34.5154 24.3932Z" fill="#F1F1F1"/>
</svg>
