<svg width="59" height="75" viewBox="0 0 59 75" fill="none" xmlns="http://www.w3.org/2000/svg">
<path d="M18.1557 32.8983C15.0616 38.5136 13.3569 44.6867 12.4063 50.9697C11.7849 55.7348 11.6016 60.5901 11.7094 65.3693C9.58609 60.8094 6.97763 56.3762 3.86201 52.3823C2.75779 50.9317 0.136916 54.7869 1.0691 55.9755C5.16691 61.3496 8.49148 67.3347 10.8708 73.6688C11.5399 75.4376 13.7096 73.0299 13.9167 71.4416C14.0857 71.2951 14.2548 71.1487 14.3268 71.0276C17.5799 67.212 20.9799 63.5626 24.6491 60.1497C25.3973 59.4429 26.1175 58.232 25.8425 57.1787C25.5675 56.1254 24.5502 56.5955 23.971 57.1559C20.737 60.2506 17.7471 63.4861 14.7822 66.8173C14.5356 56.3463 14.6022 45.4867 19.2219 35.7908C21.5677 30.8823 24.9368 26.3204 28.65 22.2824C32.2191 18.4865 36.2764 14.9723 40.7027 12.0778C45.7331 8.71863 51.2797 6.14531 57.0013 4.24229C58.0436 3.86787 58.7639 2.65697 58.9269 1.69381C59.043 0.947512 58.962 -0.156486 57.9198 0.217936C47.0337 3.77622 36.9448 9.99037 29.0333 18.1931C25.007 22.6198 21.1058 27.5252 18.1557 32.8983Z" fill="#F1F1F1"/>
</svg>
