<svg width="28" height="28" viewBox="0 0 28 28" fill="none" xmlns="http://www.w3.org/2000/svg">
<path d="M11.5003 13.9996C14.2579 13.9996 16.5005 11.7572 16.5005 8.99979C16.5005 6.24241 14.2579 4 11.5003 4C8.7427 4 6.5001 6.24241 6.5001 8.99979C6.5001 11.7572 8.7427 13.9996 11.5003 13.9996ZM11.5003 5.6666C13.3387 5.6666 14.8338 7.16153 14.8338 8.99979C14.8338 10.838 13.3387 12.333 11.5003 12.333C9.6619 12.333 8.16684 10.838 8.16684 8.99979C8.16684 7.16153 9.6619 5.6666 11.5003 5.6666ZM12.9587 17.5161C12.4854 17.3944 11.9945 17.3328 11.5003 17.3328C8.28351 17.3328 5.66674 19.9493 5.66674 23.1659C5.66674 23.6258 5.29339 23.9992 4.83337 23.9992C4.37335 23.9992 4 23.6258 4 23.1659C4 19.031 7.36514 15.6662 11.5003 15.6662C12.1353 15.6662 12.7662 15.7453 13.3754 15.9028C13.8212 16.0178 14.0888 16.472 13.9746 16.9178C13.8604 17.3636 13.4079 17.6311 12.9595 17.5169L12.9587 17.5161ZM23.2683 13.8988C22.3233 12.9538 20.6765 12.9538 19.7323 13.8988L14.1429 19.4877C13.5137 20.1168 13.1662 20.9543 13.1662 21.8451V23.1667C13.1662 23.6267 13.5396 24 13.9996 24H15.3213C16.2122 24 17.0489 23.6525 17.6781 23.0234L23.2675 17.4344C23.74 16.962 24 16.3345 24 15.6662C24 14.9979 23.74 14.3704 23.2683 13.8988ZM22.0891 16.2553L16.4989 21.8443C16.1847 22.1592 15.7663 22.3326 15.3205 22.3326H14.8321V21.8443C14.8321 21.3993 15.0055 20.981 15.3205 20.666L20.9107 15.077C21.2249 14.7621 21.7741 14.7621 22.0891 15.077C22.2466 15.2337 22.3333 15.4429 22.3333 15.6662C22.3333 15.8895 22.2466 16.0978 22.0891 16.2553Z" fill="white"/>
</svg>
