<svg width="38" height="38" viewBox="0 0 38 38" fill="none" xmlns="http://www.w3.org/2000/svg">
<circle cx="19" cy="19" r="19" fill="#296FA9"/>
<path d="M13.5455 13.5C13.5455 12.9931 13.9527 12.5833 14.4545 12.5833H17.1818C17.6836 12.5833 18.0909 12.9931 18.0909 13.5C18.0909 14.0069 17.6836 14.4167 17.1818 14.4167H14.4545C13.9527 14.4167 13.5455 14.0069 13.5455 13.5ZM19 16.25H14.4545C13.9527 16.25 13.5455 16.6597 13.5455 17.1667C13.5455 17.6736 13.9527 18.0833 14.4545 18.0833H19C19.5018 18.0833 19.9091 17.6736 19.9091 17.1667C19.9091 16.6597 19.5018 16.25 19 16.25ZM19 19.9167H14.4545C13.9527 19.9167 13.5455 20.3264 13.5455 20.8333C13.5455 21.3402 13.9527 21.75 14.4545 21.75H19C19.5018 21.75 19.9091 21.3402 19.9091 20.8333C19.9091 20.3264 19.5018 19.9167 19 19.9167ZM29 26.3333V26.7917C29 28.5608 27.5727 30 25.8182 30H12.1809C10.4273 30 9 28.5608 9 26.7917V12.5833C9 10.0561 11.0391 8 13.5455 8L25.3636 8C25.8655 8 26.2727 8.40975 26.2727 8.91667C26.2727 9.42358 25.8655 9.83333 25.3636 9.83333H13.5455C12.0418 9.83333 10.8182 11.0672 10.8182 12.5833V26.7917C10.8182 27.5497 11.43 28.1667 12.1818 28.1667C12.9336 28.1667 13.5455 27.5497 13.5455 26.7917V26.3333C13.5455 24.8172 14.7691 23.5833 16.2727 23.5833H24.4545V8.91683C24.4545 8.40992 24.8618 8 25.3636 8C25.8655 8 26.2727 8.40975 26.2727 8.91667L26.2727 23.5833C27.7764 23.5833 29 24.8172 29 26.3333ZM27.1818 26.3333C27.1818 25.8273 26.7736 25.4167 26.2727 25.4167H16.2727C15.7718 25.4167 15.3636 25.8273 15.3636 26.3333V26.7917C15.3636 27.283 15.2527 27.7496 15.0564 28.1667H25.8182C26.57 28.1667 27.1818 27.5497 27.1818 26.7917V26.3333Z" fill="white"/>
</svg>
