<svg width="65" height="74" viewBox="0 0 65 74" fill="none" xmlns="http://www.w3.org/2000/svg">
<rect width="65" height="74" rx="10" fill="white"/>
<path d="M26.0834 22.4998C26.0834 21.9929 26.4941 21.5832 27.0001 21.5832H29.7501C30.2561 21.5832 30.6668 21.9929 30.6668 22.4998C30.6668 23.0068 30.2561 23.4165 29.7501 23.4165H27.0001C26.4941 23.4165 26.0834 23.0068 26.0834 22.4998ZM31.5835 25.2499H27.0001C26.4941 25.2499 26.0834 25.6596 26.0834 26.1666C26.0834 26.6735 26.4941 27.0832 27.0001 27.0832H31.5835C32.0895 27.0832 32.5002 26.6735 32.5002 26.1666C32.5002 25.6596 32.0895 25.2499 31.5835 25.2499ZM31.5835 28.9166H27.0001C26.4941 28.9166 26.0834 29.3264 26.0834 29.8333C26.0834 30.3402 26.4941 30.75 27.0001 30.75H31.5835C32.0895 30.75 32.5002 30.3402 32.5002 29.8333C32.5002 29.3264 32.0895 28.9166 31.5835 28.9166ZM43.4444 21.2687C43.3124 20.9066 42.9677 20.6665 42.5836 20.6665H39.8327L38.8592 17.9348C38.7253 17.5763 38.3825 17.338 38.0002 17.338C37.618 17.338 37.2742 17.5763 37.1413 17.9348L36.1678 20.6665H33.4168C33.0328 20.6665 32.689 20.9066 32.557 21.2669C32.4241 21.6281 32.5313 22.0323 32.8247 22.2817L35.0036 24.0554L34.141 26.8202C34.0246 27.1914 34.1548 27.5957 34.4655 27.8294C34.6278 27.9513 34.8212 28.0128 35.0155 28.0128C35.1934 28.0128 35.3712 27.9614 35.5252 27.8578L38.0076 26.1968L40.5321 27.8404C40.8575 28.0522 41.2829 28.0357 41.5918 27.7982C41.9007 27.5608 42.0254 27.1538 41.9026 26.7844L41.0051 24.0527L43.174 22.2863C43.4682 22.0378 43.5764 21.6327 43.4444 21.2706V21.2687ZM41.667 35.3334V35.7917C41.667 37.5609 40.2278 39.0001 38.4586 39.0001H24.7075C22.9392 39.0001 21.5 37.5609 21.5 35.7917V21.5832C21.5 19.0559 23.5561 16.9998 26.0834 16.9998H33.4168C33.9229 16.9998 34.3335 17.4095 34.3335 17.9164C34.3335 18.4234 33.9229 18.8331 33.4168 18.8331H26.0834C24.5672 18.8331 23.3334 20.067 23.3334 21.5832V35.7917C23.3334 36.5498 23.9503 37.1667 24.7084 37.1667C25.4665 37.1667 26.0834 36.5498 26.0834 35.7917V35.3334C26.0834 33.8172 27.3173 32.5833 28.8334 32.5833H37.0836V29.8333C37.0836 29.3264 37.4942 28.9166 38.0002 28.9166C38.5063 28.9166 38.9169 29.3264 38.9169 29.8333V32.5833C40.4331 32.5833 41.667 33.8172 41.667 35.3334ZM39.8336 35.3334C39.8336 34.8274 39.422 34.4167 38.9169 34.4167H28.8334C28.3284 34.4167 27.9168 34.8274 27.9168 35.3334V35.7917C27.9168 36.283 27.8049 36.7496 27.6069 37.1667H38.4586C39.2167 37.1667 39.8336 36.5498 39.8336 35.7917V35.3334Z" fill="#2D7FC3"/>
<path d="M18.512 60.744V63H17.6V57.44H19.52C20.1493 57.44 20.6347 57.5973 20.976 57.912C21.3173 58.2213 21.488 58.616 21.488 59.096C21.488 59.4693 21.3733 59.8053 21.144 60.104C20.92 60.4027 20.5733 60.5973 20.104 60.688L21.576 63H20.464L19.072 60.744H18.512ZM18.512 58.152V60.032H19.52C19.8667 60.032 20.1253 59.9493 20.296 59.784C20.4667 59.6187 20.552 59.3893 20.552 59.096C20.552 58.7973 20.4667 58.5653 20.296 58.4C20.1253 58.2347 19.8667 58.152 19.52 58.152H18.512ZM24.5107 63.072C23.8707 63.072 23.3507 62.864 22.9507 62.448C22.5507 62.032 22.3507 61.48 22.3507 60.792C22.3507 60.104 22.5534 59.5547 22.9587 59.144C23.364 58.728 23.8867 58.52 24.5267 58.52C25.172 58.52 25.6947 58.72 26.0947 59.12C26.4947 59.5147 26.6947 60.032 26.6947 60.672C26.6947 60.8267 26.684 60.9707 26.6627 61.104H23.2867C23.308 61.472 23.4307 61.7653 23.6547 61.984C23.884 62.1973 24.1694 62.304 24.5107 62.304C25.0067 62.304 25.356 62.0987 25.5587 61.688H26.5427C26.4094 62.0933 26.1667 62.4267 25.8147 62.688C25.4627 62.944 25.028 63.072 24.5107 63.072ZM25.7427 60.48C25.7374 60.1173 25.6174 59.8293 25.3827 59.616C25.148 59.3973 24.8627 59.288 24.5267 59.288C24.1907 59.288 23.908 59.3973 23.6787 59.616C23.4547 59.8293 23.3267 60.1173 23.2947 60.48H25.7427ZM30.7842 61.872C31.0509 61.5947 31.1842 61.2293 31.1842 60.776C31.1842 60.3227 31.0509 59.9653 30.7842 59.704C30.5229 59.4427 30.2082 59.312 29.8402 59.312C29.4775 59.312 29.1629 59.4453 28.8962 59.712C28.6349 59.9787 28.5042 60.3387 28.5042 60.792C28.5042 61.2453 28.6349 61.608 28.8962 61.88C29.1629 62.1467 29.4775 62.28 29.8402 62.28C30.2029 62.28 30.5175 62.144 30.7842 61.872ZM30.0402 58.52C30.6322 58.52 31.1255 58.7307 31.5202 59.152C31.9149 59.568 32.1122 60.112 32.1122 60.784C32.1122 61.4507 31.9122 62 31.5122 62.432C31.1175 62.8587 30.6269 63.072 30.0402 63.072C29.6935 63.072 29.3895 62.992 29.1282 62.832C28.8669 62.6667 28.6589 62.448 28.5042 62.176V65.096H27.5922V58.592H28.5042V59.376C28.6535 59.12 28.8589 58.9147 29.1202 58.76C29.3869 58.6 29.6935 58.52 30.0402 58.52ZM35.8781 61.904C36.1447 61.6373 36.2781 61.2667 36.2781 60.792C36.2781 60.3173 36.1474 59.9493 35.8861 59.688C35.6301 59.4213 35.3181 59.288 34.9501 59.288C34.5821 59.288 34.2727 59.4213 34.0221 59.688C33.7714 59.9493 33.6461 60.32 33.6461 60.8C33.6461 61.2747 33.7687 61.6453 34.0141 61.912C34.2594 62.1733 34.5634 62.304 34.9261 62.304C35.2941 62.304 35.6114 62.1707 35.8781 61.904ZM34.9261 63.072C34.2861 63.072 33.7581 62.864 33.3421 62.448C32.9261 62.0267 32.7181 61.4773 32.7181 60.8C32.7181 60.1173 32.9314 59.568 33.3581 59.152C33.7901 58.7307 34.3261 58.52 34.9661 58.52C35.6061 58.52 36.1394 58.7307 36.5661 59.152C36.9981 59.568 37.2141 60.1147 37.2141 60.792C37.2141 61.4693 36.9927 62.0187 36.5501 62.44C36.1127 62.8613 35.5714 63.072 34.9261 63.072ZM39.0276 58.592V59.36C39.3103 58.8 39.7503 58.52 40.3476 58.52V59.464H40.1156C39.7583 59.464 39.4863 59.5547 39.2996 59.736C39.1183 59.9173 39.0276 60.232 39.0276 60.68V63H38.1156V58.592H39.0276ZM43.3219 59.336H42.2499V61.776C42.2499 61.9413 42.2873 62.0613 42.3619 62.136C42.4419 62.2053 42.5753 62.24 42.7619 62.24H43.3219V63H42.6019C41.7539 63 41.3299 62.592 41.3299 61.776V59.336H40.8099V58.592H41.3299V57.496H42.2499V58.592H43.3219V59.336ZM43.9625 59.856C43.9625 59.4827 44.1198 59.168 44.4345 58.912C44.7492 58.6507 45.1625 58.52 45.6745 58.52C46.1865 58.52 46.5918 58.648 46.8905 58.904C47.1945 59.1547 47.3572 59.4987 47.3785 59.936H46.4425C46.4265 59.7173 46.3492 59.5467 46.2105 59.424C46.0772 59.3013 45.8878 59.24 45.6425 59.24C45.3972 59.24 45.2052 59.296 45.0665 59.408C44.9278 59.5147 44.8585 59.6587 44.8585 59.84C44.8585 60.016 44.9465 60.1547 45.1225 60.256C45.2985 60.3573 45.5118 60.432 45.7625 60.48C46.0185 60.528 46.2718 60.5867 46.5225 60.656C46.7785 60.7253 46.9945 60.8533 47.1705 61.04C47.3465 61.2213 47.4345 61.4667 47.4345 61.776C47.4345 62.16 47.2718 62.472 46.9465 62.712C46.6265 62.952 46.2132 63.072 45.7065 63.072C45.1998 63.072 44.7892 62.9493 44.4745 62.704C44.1598 62.4587 43.9865 62.1093 43.9545 61.656H44.8985C44.9145 61.8747 44.9945 62.0453 45.1385 62.168C45.2825 62.2907 45.4772 62.352 45.7225 62.352C45.9732 62.352 46.1705 62.2987 46.3145 62.192C46.4638 62.08 46.5385 61.9333 46.5385 61.752C46.5385 61.5707 46.4505 61.4293 46.2745 61.328C46.0985 61.2267 45.8825 61.152 45.6265 61.104C45.3758 61.0507 45.1225 60.992 44.8665 60.928C44.6158 60.8587 44.4025 60.736 44.2265 60.56C44.0505 60.384 43.9625 60.1493 43.9625 59.856Z" fill="#2D7FC3"/>
</svg>
