<svg width="64" height="64" viewBox="0 0 64 64" fill="none" xmlns="http://www.w3.org/2000/svg">
<rect width="64" height="64" rx="32" fill="#2D7FC3"/>
<path d="M20.751 20.125C20.751 18.3987 22.1497 17 23.8759 17C25.6022 17 27.0009 18.3987 27.0009 20.125C27.0009 21.8513 25.6022 23.25 23.8759 23.25C22.1497 23.25 20.751 21.8513 20.751 20.125ZM40.1258 23.25C41.852 23.25 43.2507 21.8513 43.2507 20.125C43.2507 18.3987 41.852 17 40.1258 17C38.3995 17 37.0008 18.3987 37.0008 20.125C37.0008 21.8513 38.3995 23.25 40.1258 23.25ZM20.0235 39.5475C19.361 39.3638 18.6685 39.7425 18.4785 40.4075L17.0485 45.4075C16.8585 46.07 17.2435 46.7625 17.9073 46.9525C18.0223 46.9837 18.1385 47 18.251 47C18.7947 47 19.2947 46.6425 19.4522 46.0925L20.881 41.0925C21.071 40.43 20.6872 39.7375 20.0235 39.5475ZM46.9519 45.4075L45.5232 40.4075C45.3344 39.7437 44.642 39.3638 43.9782 39.5475C43.3145 39.7375 42.9307 40.4288 43.1195 41.0925L44.5482 46.0925C44.7045 46.6413 45.2057 47 45.7494 47C45.8632 47 45.9794 46.9837 46.0932 46.9525C46.7569 46.7625 47.1407 46.0712 46.9519 45.4075ZM44.672 37.0175L40.7495 39.5737V45.75C40.7495 46.4412 40.1895 47 39.4995 47C38.8095 47 38.2495 46.4412 38.2495 45.75V38.8962C38.2495 38.4737 38.4633 38.08 38.817 37.8488L40.6882 36.63L38.647 28.9862L37.0008 31.7612V35.125C37.0008 36.8487 35.5983 38.25 33.8758 38.25H30.1259C28.4034 38.25 27.0009 36.8487 27.0009 35.125V31.7612L25.3622 28.9975L23.3759 36.6687L25.1834 37.8475C25.5372 38.0788 25.7509 38.4725 25.7509 38.895V45.7488C25.7509 46.44 25.1909 46.9988 24.5009 46.9988C23.8109 46.9988 23.2509 46.44 23.2509 45.7488V39.5725L19.3147 37.0062C17.5798 35.9112 16.686 33.8063 17.1048 31.78L18.0385 28.3287C18.4885 26.1412 20.5047 24.5 22.8135 24.5C24.5334 24.5 26.1459 25.4188 27.0234 26.8988L28.2196 28.9163C28.7484 28.505 29.4046 28.25 30.1259 28.25H33.8758C34.5971 28.25 35.2533 28.505 35.7821 28.9163L36.9795 26.8988C37.8558 25.4188 39.4683 24.5 41.1882 24.5C43.4982 24.5 45.5132 26.1413 45.9807 28.4038L46.8794 31.7063C47.3157 33.8075 46.4219 35.9112 44.672 37.0175ZM21.166 35.2288L23.2809 27.0612C23.1272 27.03 22.9734 27 22.8147 27C21.6847 27 20.6985 27.8038 20.471 28.9088L19.5372 32.36C19.3447 33.2987 19.7922 34.3512 20.666 34.9025L21.166 35.2288ZM34.5008 31.375C34.5008 31.0312 34.2208 30.75 33.8758 30.75H30.1259C29.7809 30.75 29.5009 31.0312 29.5009 31.375V35.125C29.5009 35.4688 29.7809 35.75 30.1259 35.75H33.8758C34.2208 35.75 34.5008 35.4688 34.5008 35.125V31.375ZM44.4482 32.2863L43.5495 28.9837C43.3032 27.8037 42.317 27 41.187 27C41.0282 27 40.8732 27.0312 40.7207 27.0612L42.892 35.1925L43.322 34.9125C44.2107 34.3512 44.657 33.2987 44.4482 32.285V32.2863Z" fill="#FFF2F2"/>
</svg>
