<svg width="14" height="14" viewBox="0 0 14 14" fill="none" xmlns="http://www.w3.org/2000/svg">
<path d="M10.9438 7.9293H0.898876C0.644195 7.9293 0.430712 7.84082 0.258427 7.66385C0.0861423 7.48689 0 7.2676 0 7.006C0 6.7444 0.0861423 6.52512 0.258427 6.34815C0.430712 6.17118 0.644195 6.0827 0.898876 6.0827H10.9438L6.53933 1.55853C6.35955 1.37387 6.27341 1.15843 6.2809 0.912221C6.28839 0.666007 6.38202 0.45057 6.5618 0.26591C6.74157 0.0966388 6.95131 0.00815582 7.19101 0.00046165C7.43071 -0.00723252 7.64045 0.0812504 7.82022 0.26591L13.7528 6.35969C13.8427 6.45202 13.9064 6.55204 13.9438 6.65976C13.9813 6.76748 14 6.88289 14 7.006C14 7.12911 13.9813 7.24452 13.9438 7.35224C13.9064 7.45996 13.8427 7.55998 13.7528 7.65231L7.82022 13.7461C7.65543 13.9154 7.44944 14 7.20225 14C6.95506 14 6.74157 13.9154 6.5618 13.7461C6.38202 13.5614 6.29214 13.3421 6.29214 13.0882C6.29214 12.8343 6.38202 12.615 6.5618 12.4304L10.9438 7.9293Z" fill="white"/>
</svg>
