<svg width="34" height="34" viewBox="0 0 34 34" fill="none" xmlns="http://www.w3.org/2000/svg">
<path d="M29.0418 10.2165V26.4809C29.0418 27.1965 28.7939 27.8022 28.2981 28.2981C27.8022 28.7939 27.1965 29.0418 26.4809 29.0418H7.51948C6.80382 29.0418 6.19808 28.7939 5.70225 28.2981C5.20641 27.8022 4.9585 27.1965 4.9585 26.4809V7.51948C4.9585 6.80382 5.20641 6.19808 5.70225 5.70225C6.19808 5.20641 6.80382 4.9585 7.51948 4.9585H23.7839L29.0418 10.2165ZM26.9168 11.121L22.8793 7.0835H7.51948C7.39221 7.0835 7.28773 7.12434 7.20604 7.20604C7.12434 7.28773 7.0835 7.39221 7.0835 7.51948V26.4809C7.0835 26.6081 7.12434 26.7126 7.20604 26.7943C7.28773 26.876 7.39221 26.9168 7.51948 26.9168H26.4809C26.6081 26.9168 26.7126 26.876 26.7943 26.7943C26.876 26.7126 26.9168 26.6081 26.9168 26.4809V11.121ZM17.0002 24.4649C17.981 24.4649 18.8164 24.1199 19.5066 23.4297C20.1968 22.7396 20.5418 21.9041 20.5418 20.9233C20.5418 19.9425 20.1968 19.107 19.5066 18.4168C18.8164 17.7267 17.981 17.3816 17.0002 17.3816C16.0194 17.3816 15.1839 17.7267 14.4937 18.4168C13.8036 19.107 13.4585 19.9425 13.4585 20.9233C13.4585 21.9041 13.8036 22.7396 14.4937 23.4297C15.1839 24.1199 16.0194 24.4649 17.0002 24.4649ZM9.04523 14.0032H20.6778V9.04523H9.04523V14.0032ZM7.0835 11.121V26.9168V7.0835V11.121Z" fill="white"/>
</svg>
