<svg width="97" height="41" viewBox="0 0 97 41" fill="none" xmlns="http://www.w3.org/2000/svg">
<rect x="0.5" y="0.5" width="96" height="40" rx="20" stroke="#296FA9"/>
<path d="M39.3359 22.5703C39.3359 22.3359 39.2995 22.1276 39.2266 21.9453C39.1589 21.763 39.0365 21.5964 38.8594 21.4453C38.6823 21.2943 38.4323 21.1484 38.1094 21.0078C37.7917 20.862 37.3854 20.7135 36.8906 20.5625C36.349 20.3958 35.849 20.2109 35.3906 20.0078C34.9375 19.7995 34.5417 19.5599 34.2031 19.2891C33.8646 19.013 33.6016 18.6979 33.4141 18.3438C33.2266 17.9844 33.1328 17.5703 33.1328 17.1016C33.1328 16.638 33.2292 16.2161 33.4219 15.8359C33.6198 15.4557 33.8984 15.1276 34.2578 14.8516C34.6224 14.5703 35.0521 14.3542 35.5469 14.2031C36.0417 14.0469 36.5885 13.9688 37.1875 13.9688C38.0312 13.9688 38.7578 14.125 39.3672 14.4375C39.9818 14.75 40.4531 15.1693 40.7812 15.6953C41.1146 16.2214 41.2812 16.8021 41.2812 17.4375H39.3359C39.3359 17.0625 39.2552 16.7318 39.0938 16.4453C38.9375 16.1536 38.6979 15.9245 38.375 15.7578C38.0573 15.5911 37.6536 15.5078 37.1641 15.5078C36.7005 15.5078 36.3151 15.5781 36.0078 15.7188C35.7005 15.8594 35.4714 16.0495 35.3203 16.2891C35.1693 16.5286 35.0938 16.7995 35.0938 17.1016C35.0938 17.3151 35.1432 17.5104 35.2422 17.6875C35.3411 17.8594 35.4922 18.0208 35.6953 18.1719C35.8984 18.3177 36.1536 18.4557 36.4609 18.5859C36.7682 18.7161 37.1302 18.8411 37.5469 18.9609C38.1771 19.1484 38.7266 19.3568 39.1953 19.5859C39.6641 19.8099 40.0547 20.0651 40.3672 20.3516C40.6797 20.638 40.9141 20.9635 41.0703 21.3281C41.2266 21.6875 41.3047 22.0964 41.3047 22.5547C41.3047 23.0339 41.2083 23.4661 41.0156 23.8516C40.8229 24.2318 40.5469 24.5573 40.1875 24.8281C39.8333 25.0938 39.4062 25.2995 38.9062 25.4453C38.4115 25.5859 37.8594 25.6562 37.25 25.6562C36.7031 25.6562 36.1641 25.5833 35.6328 25.4375C35.1068 25.2917 34.6276 25.0703 34.1953 24.7734C33.763 24.4714 33.4193 24.0964 33.1641 23.6484C32.9089 23.1953 32.7812 22.6667 32.7812 22.0625H34.7422C34.7422 22.4323 34.8047 22.7474 34.9297 23.0078C35.0599 23.2682 35.2396 23.4818 35.4688 23.6484C35.6979 23.8099 35.9635 23.9297 36.2656 24.0078C36.5729 24.0859 36.901 24.125 37.25 24.125C37.7083 24.125 38.0911 24.0599 38.3984 23.9297C38.7109 23.7995 38.9453 23.6172 39.1016 23.3828C39.2578 23.1484 39.3359 22.8776 39.3359 22.5703ZM45.25 13.5V25.5H43.3594V13.5H45.25ZM50.5 17.0469L46.8203 21.125L44.8047 23.1875L44.3125 21.5938L45.8359 19.7109L48.2266 17.0469H50.5ZM48.6328 25.5L45.8906 21.5312L47.0781 20.2109L50.8125 25.5H48.6328ZM54.2109 17.0469V25.5H52.3203V17.0469H54.2109ZM52.1953 14.8281C52.1953 14.5417 52.2891 14.3047 52.4766 14.1172C52.6693 13.9245 52.9349 13.8281 53.2734 13.8281C53.6068 13.8281 53.8698 13.9245 54.0625 14.1172C54.2552 14.3047 54.3516 14.5417 54.3516 14.8281C54.3516 15.1094 54.2552 15.3438 54.0625 15.5312C53.8698 15.7188 53.6068 15.8125 53.2734 15.8125C52.9349 15.8125 52.6693 15.7188 52.4766 15.5312C52.2891 15.3438 52.1953 15.1094 52.1953 14.8281ZM58.6641 18.6719V28.75H56.7812V17.0469H58.5156L58.6641 18.6719ZM64.1719 21.1953V21.3594C64.1719 21.974 64.099 22.5443 63.9531 23.0703C63.8125 23.5911 63.6016 24.0469 63.3203 24.4375C63.0443 24.8229 62.7031 25.1224 62.2969 25.3359C61.8906 25.5495 61.4219 25.6562 60.8906 25.6562C60.3646 25.6562 59.9036 25.5599 59.5078 25.3672C59.1172 25.1693 58.7865 24.8906 58.5156 24.5312C58.2448 24.1719 58.026 23.75 57.8594 23.2656C57.6979 22.776 57.5833 22.2396 57.5156 21.6562V21.0234C57.5833 20.4036 57.6979 19.8411 57.8594 19.3359C58.026 18.8307 58.2448 18.3958 58.5156 18.0312C58.7865 17.6667 59.1172 17.3854 59.5078 17.1875C59.8984 16.9896 60.3542 16.8906 60.875 16.8906C61.4062 16.8906 61.8776 16.9948 62.2891 17.2031C62.7005 17.4062 63.0469 17.6979 63.3281 18.0781C63.6094 18.4531 63.8203 18.9062 63.9609 19.4375C64.1016 19.9635 64.1719 20.5495 64.1719 21.1953ZM62.2891 21.3594V21.1953C62.2891 20.8047 62.2526 20.4427 62.1797 20.1094C62.1068 19.7708 61.9922 19.474 61.8359 19.2188C61.6797 18.9635 61.4792 18.7656 61.2344 18.625C60.9948 18.4792 60.7057 18.4062 60.3672 18.4062C60.0339 18.4062 59.7474 18.4635 59.5078 18.5781C59.2682 18.6875 59.0677 18.8411 58.9062 19.0391C58.7448 19.237 58.6198 19.4688 58.5312 19.7344C58.4427 19.9948 58.3802 20.2786 58.3438 20.5859V22.1016C58.4062 22.4766 58.513 22.8203 58.6641 23.1328C58.8151 23.4453 59.0286 23.6953 59.3047 23.8828C59.5859 24.0651 59.9453 24.1562 60.3828 24.1562C60.7214 24.1562 61.0104 24.0833 61.25 23.9375C61.4896 23.7917 61.6849 23.5911 61.8359 23.3359C61.9922 23.0755 62.1068 22.776 62.1797 22.4375C62.2526 22.099 62.2891 21.7396 62.2891 21.3594Z" fill="white"/>
</svg>
