<svg width="24" height="24" viewBox="0 0 24 24" fill="none" xmlns="http://www.w3.org/2000/svg">
<path fill-rule="evenodd" clip-rule="evenodd" d="M12 22C17.5228 22 22 17.5228 22 12C22 6.47715 17.5228 2 12 2C6.47715 2 2 6.47715 2 12C2 17.5229 6.47716 22 12 22ZM17.2626 9.66021C17.638 9.25505 17.6138 8.62234 17.2086 8.24703C16.8034 7.87172 16.1707 7.89592 15.7954 8.30109L10.8609 13.6281L8.12801 11.2461C7.71166 10.8833 7.07998 10.9266 6.71711 11.343C6.35424 11.7593 6.39759 12.391 6.81394 12.7539L10.2782 15.7732C10.6857 16.1283 11.3016 16.0954 11.6689 15.6989L17.2626 9.66021Z" fill="#3EAB5C"/>
</svg>
