<svg width="24" height="24" viewBox="0 0 24 24" fill="none" xmlns="http://www.w3.org/2000/svg">
<rect width="24" height="24" rx="12" fill="#296FA9"/>
<path d="M14.9238 15.1094V16H9.33984V15.2207L12.1348 12.1094C12.4785 11.7266 12.7441 11.4023 12.9316 11.1367C13.123 10.8672 13.2559 10.627 13.3301 10.416C13.4082 10.2012 13.4473 9.98242 13.4473 9.75977C13.4473 9.47852 13.3887 9.22461 13.2715 8.99805C13.1582 8.76758 12.9902 8.58398 12.7676 8.44727C12.5449 8.31055 12.2754 8.24219 11.959 8.24219C11.5801 8.24219 11.2637 8.31641 11.0098 8.46484C10.7598 8.60938 10.5723 8.8125 10.4473 9.07422C10.3223 9.33594 10.2598 9.63672 10.2598 9.97656H9.17578C9.17578 9.49609 9.28125 9.05664 9.49219 8.6582C9.70312 8.25977 10.0156 7.94336 10.4297 7.70898C10.8438 7.4707 11.3535 7.35156 11.959 7.35156C12.498 7.35156 12.959 7.44727 13.3418 7.63867C13.7246 7.82617 14.0176 8.0918 14.2207 8.43555C14.4277 8.77539 14.5312 9.17383 14.5312 9.63086C14.5312 9.88086 14.4883 10.1348 14.4023 10.3926C14.3203 10.6465 14.2051 10.9004 14.0566 11.1543C13.9121 11.4082 13.7422 11.6582 13.5469 11.9043C13.3555 12.1504 13.1504 12.3926 12.9316 12.6309L10.6465 15.1094H14.9238Z" fill="white"/>
</svg>
