<svg width="72" height="72" viewBox="0 0 72 72" fill="none" xmlns="http://www.w3.org/2000/svg">
<path d="M48.75 36H44.5C42.9374 36 41.6667 37.2708 41.6667 38.8333C41.6667 40.3959 40.3959 41.6667 38.8333 41.6667H33.1667C31.6041 41.6667 30.3333 40.3959 30.3333 38.8333C30.3333 37.2708 29.0626 36 27.5 36H23.25C20.9068 36 19 37.9068 19 40.25V45.9167C19 49.8224 22.1776 53 26.0833 53H45.9167C49.8224 53 53 49.8224 53 45.9167V40.25C53 37.9068 51.0932 36 48.75 36ZM50.1667 45.9167C50.1667 48.2598 48.2598 50.1667 45.9167 50.1667H26.0833C23.7402 50.1667 21.8333 48.2598 21.8333 45.9167V40.25C21.8333 39.468 22.468 38.8333 23.25 38.8333L27.5 38.8305V38.8333C27.5 41.9585 30.0415 44.5 33.1667 44.5H38.8333C41.9585 44.5 44.5 41.9585 44.5 38.8333H48.75C49.532 38.8333 50.1667 39.468 50.1667 40.25V45.9167ZM29.3317 26.4984C28.7778 25.9445 28.7778 25.0492 29.3317 24.4952L33.9968 19.8302C34.5437 19.2833 35.2619 19.0085 35.9802 19.0042L36 19L36.0198 19.0042C36.7395 19.0085 37.4563 19.2833 38.0032 19.8302L42.6683 24.4952C43.2222 25.0492 43.2222 25.9445 42.6683 26.4984C42.392 26.7747 42.0293 26.9135 41.6667 26.9135C41.304 26.9135 40.9413 26.7747 40.6651 26.4984L37.4167 23.25V33.1667C37.4167 33.9501 36.7834 34.5833 36 34.5833C35.2166 34.5833 34.5833 33.9501 34.5833 33.1667V23.25L31.3349 26.4984C30.781 27.0523 29.8857 27.0523 29.3317 26.4984Z" fill="white"/>
</svg>
