<svg width="200" height="200" viewBox="0 0 200 200" fill="none" xmlns="http://www.w3.org/2000/svg">
<circle cx="100" cy="100" r="100" fill="white"/>
<path fill-rule="evenodd" clip-rule="evenodd" d="M99.6168 54.168C118.045 54.168 135.923 60.458 150.291 71.9954C151.951 73.327 152.216 75.7552 150.885 77.4144C149.553 79.0736 147.125 79.3376 145.466 78.006C132.464 67.567 116.29 61.8763 99.6168 61.8763C82.9417 61.8763 66.7677 67.567 53.7657 78.006C52.1084 79.3376 49.6802 79.0736 48.3486 77.4144C47.017 75.7552 47.281 73.327 48.9402 71.9954C63.3105 60.458 81.1881 54.168 99.6168 54.168ZM135.814 90.0271C125.55 81.785 112.781 77.293 99.6171 77.293C86.4532 77.293 73.6844 81.785 63.4188 90.0271C61.7615 91.3587 61.4956 93.7869 62.8272 95.4461C64.1588 97.1034 66.5869 97.3693 68.2461 96.0377C77.1416 88.894 88.2088 85.0013 99.6171 85.0013C111.025 85.0013 122.093 88.894 130.988 96.0377C132.645 97.3693 135.074 97.1034 136.405 95.4461C137.737 93.7869 137.473 91.3587 135.814 90.0271ZM121.335 108.059C115.176 103.114 107.514 100.418 99.6172 100.418C91.718 100.418 84.056 103.114 77.8989 108.059C76.2397 109.39 75.9738 111.819 77.3054 113.476C78.6389 115.135 81.0651 115.401 82.7243 114.069C87.5151 110.223 93.4736 108.126 99.6172 108.126C105.759 108.126 111.719 110.223 116.508 114.069C118.167 115.401 120.595 115.135 121.927 113.476C123.259 111.819 122.993 109.39 121.335 108.059ZM99.5995 140.555L104.583 145.539C106.086 147.044 108.53 147.044 110.033 145.539C111.538 144.036 111.538 141.592 110.033 140.089L105.049 135.105L110.033 130.122C111.538 128.619 111.538 126.175 110.033 124.672C108.53 123.167 106.086 123.167 104.583 124.672L99.5995 129.656L94.6161 124.672C93.113 123.167 90.6694 123.167 89.1663 124.672C87.6613 126.175 87.6613 128.619 89.1663 130.122L94.1497 135.105L89.1663 140.089C87.6613 141.592 87.6613 144.036 89.1663 145.539C90.6694 147.044 93.113 147.044 94.6161 145.539L99.5995 140.555Z" fill="#296FA9"/>
</svg>
